<?xml version="1.0" encoding="UTF-8"?><svg id="Layer_2" xmlns="http://www.w3.org/2000/svg" width="303.33" height="303.33" viewBox="0 0 303.33 303.33"><defs><style>.cls-1{fill:#f25c5c;}.cls-2{stroke-width:4px;}.cls-2,.cls-3{fill:none;stroke:#f25c5c;stroke-linecap:round;stroke-miterlimit:10;}.cls-3{stroke-width:3px;}</style></defs><g id="Layer_8"><g><path class="cls-2" d="M178.21,4.34c-10.71-1.92-21.79-2.69-33.11-2.19C62.52,5.78-1.48,75.66,2.15,158.24c3.63,82.58,73.51,146.58,156.09,142.95,82.58-3.63,146.58-73.51,142.95-156.09-1.95-44.25-22.92-83.17-54.67-109.2"/><g><path class="cls-1" d="M246.65,103.41c-24.66,0-44.65-19.99-44.65-44.65,0-12.01,4.75-22.9,12.46-30.93-18.88-9.64-40.26-15.08-62.91-15.08C75.06,12.75,13.05,74.76,13.05,151.25c0,12.7,1.72,25,4.92,36.69L67.66,56.51h33.25l46.73,123.6V56.51h33.96V198.34h80.6v32.77H132.24l-11.48-31.81H47.81l-10.78,29.86c24.93,36.57,66.92,60.59,114.52,60.59,76.49,0,138.5-62.01,138.5-138.5,0-21.28-4.8-41.43-13.38-59.44-7.93,7.21-18.46,11.6-30.02,11.6Z"/><polygon class="cls-1" points="59.05 168.68 109.52 168.68 84.41 99.32 59.05 168.68"/></g><g><g><path class="cls-2" d="M237.94,78.6c25.31-22.82,41.33-5.19,41.33-5.19-16.5,20.45-36.43,8-41.33,5.19,0,0-2.85,.5-5.36-1.25"/><path class="cls-3" d="M279.26,73.41s-15.34,2.79-24.13,2.88"/></g><g><path class="cls-2" d="M221.66,53.38c27.41-20.25,41.64-1.15,41.64-1.15-18.41,18.75-37.04,4.41-41.64,1.15,0,0-2.88,.22-5.21-1.77"/><path class="cls-3" d="M263.3,52.23s-15.54,1.29-24.29,.52"/></g><g><path class="cls-2" d="M292.58,32.46c-26.65,21.24-11.88,39.92-11.88,39.92,22.87-12.93,13.84-34.63,11.88-39.92,0,0,.96-2.73-.36-5.49"/><path class="cls-3" d="M280.7,72.39s5.27-14.68,6.79-23.33"/></g><g><path class="cls-2" d="M269.54,9.83c-22.94,25.2-5.38,41.3-5.38,41.3,20.53-16.4,8.16-36.39,5.38-41.3,0,0,.52-2.84-1.23-5.36"/><path class="cls-3" d="M264.16,51.14s2.87-15.33,2.99-24.11"/></g><g><path class="cls-2" d="M247.13,36.39s6.17-21.68-30.33-28.84c1.79,7.74,9.2,33.47,30.33,28.84Z"/><line class="cls-2" x1="211.97" y1="4.49" x2="216.8" y2="7.56"/><line class="cls-3" x1="230.07" y1="20.07" x2="247.13" y2="36.39"/></g></g></g></g></svg>