<?xml version="1.0" encoding="UTF-8"?><svg xmlns="http://www.w3.org/2000/svg" width="691.11" height="303.33" viewBox="0 0 691.11 303.33"><defs><style>.d{fill:#f25c5c;}.e{fill:#34313a;}.f{stroke-width:4px;}.f,.g{fill:none;stroke:#f25c5c;stroke-linecap:round;stroke-miterlimit:10;}.g{stroke-width:3px;}</style></defs><g id="a"/><g id="b"><g id="c"><g><g><g><path class="e" d="M342.32,111.26h6.25l12.42,32.85h-6.52l-2.16-5.99h-13.72l-2.16,5.99h-6.53l12.42-32.85Zm-1.62,21.1h9.49l-4.72-13.05-4.77,13.05Z"/><path class="e" d="M361.54,127.69c0-9.45,7.06-16.87,16.96-16.87,6.21,0,10.93,2.65,14.04,6.84l-5.35,3.73c-1.89-2.88-4.86-4.54-8.68-4.54-6.08,0-10.62,4.81-10.62,10.84s4.45,10.75,10.71,10.75c5,0,8.28-2.79,9.36-7.11h-10.44v-5.94h17.28v2.75c0,8.77-6.25,16.42-16.11,16.42s-17.14-7.74-17.14-16.87Z"/><path class="e" d="M399.7,111.26h13.32c7.56,0,12.06,4.86,12.06,11.12,0,4.14-2.12,7.88-5.76,9.72l6.48,12.02h-7.11l-5.26-10.35h-7.38v10.35h-6.34v-32.85Zm6.34,5.85v10.85h6.48c4.19,0,6.12-2.61,6.12-5.54,0-3.24-2.07-5.31-6.12-5.31h-6.48Z"/><path class="e" d="M429.04,127.69c0-9.31,7.47-16.87,16.78-16.87s16.87,7.56,16.87,16.87-7.47,16.87-16.87,16.87-16.78-7.56-16.78-16.87Zm27.27,0c0-5.85-4.54-10.67-10.48-10.67s-10.39,4.82-10.39,10.67,4.5,10.62,10.39,10.62,10.48-4.82,10.48-10.62Z"/><path class="e" d="M473.09,117.11h-9.13v-5.85h24.43v5.85h-9.04v27h-6.25v-27Z"/><path class="e" d="M489.7,127.69c0-9.31,7.47-16.87,16.78-16.87s16.87,7.56,16.87,16.87-7.47,16.87-16.87,16.87-16.78-7.56-16.78-16.87Zm27.27,0c0-5.85-4.54-10.67-10.48-10.67s-10.39,4.82-10.39,10.67,4.5,10.62,10.39,10.62,10.48-4.82,10.48-10.62Z"/><path class="e" d="M527.95,131.47v-20.21h6.48v20.34c0,4.05,2.61,6.84,6.48,6.84s6.53-2.79,6.53-6.84v-20.34h6.48v20.21c0,8.19-5.22,13.09-13,13.09s-12.96-4.9-12.96-13.09Z"/><path class="e" d="M559.63,111.26h13.32c7.56,0,12.06,4.86,12.06,11.12,0,4.14-2.12,7.88-5.76,9.72l6.48,12.02h-7.11l-5.26-10.35h-7.38v10.35h-6.34v-32.85Zm6.34,5.85v10.85h6.48c4.19,0,6.12-2.61,6.12-5.54,0-3.24-2.07-5.31-6.12-5.31h-6.48Z"/><path class="e" d="M590.09,111.26h6.44v32.85h-6.44v-32.85Z"/><path class="e" d="M599.99,137.81l5.53-4.41c2.16,3.42,5.08,5.17,9,5.17,3.55,0,5.4-1.71,5.4-4.09,0-3.06-3.15-3.69-7.69-4.73-4.91-1.03-10.39-2.61-10.39-9.27,0-5.4,4.81-9.72,11.65-9.72,5.8,0,9.45,2.02,12.78,5.71l-5.17,4.05c-1.71-2.52-3.92-4.09-7.69-4.09-3.55,0-5.08,1.75-5.08,3.91,0,2.66,3.29,3.15,7.38,4.1,5.04,1.08,10.84,2.7,10.84,9.81,0,5.62-4.72,10.3-12.06,10.3s-11.38-2.79-14.49-6.75Z"/><path class="e" d="M631.18,111.26h6.17l9.76,13.54,10.12-13.54h5.89v32.85h-6.21v-23.04l-9.85,13.23-9.58-13v22.81h-6.3v-32.85Z"/><path class="e" d="M669.02,111.26h22.09v5.99h-15.75v7.38h15.75v5.98h-15.75v7.47h15.75v6.03h-22.09v-32.85Z"/></g><g><path class="e" d="M332.11,159.27h6.39v26.68h15.16v6.17h-21.55v-32.85Z"/><path class="e" d="M369.14,159.27h6.25l12.42,32.85h-6.52l-2.16-5.99h-13.72l-2.16,5.99h-6.53l12.42-32.85Zm-1.62,21.1h9.49l-4.72-13.05-4.77,13.05Z"/><path class="e" d="M389.48,179.47v-20.2h6.48v20.34c0,4.05,2.61,6.84,6.48,6.84s6.53-2.79,6.53-6.84v-20.34h6.48v20.2c0,8.19-5.22,13.09-13,13.09s-12.96-4.91-12.96-13.09Z"/><path class="e" d="M421.16,159.27h13.32c7.56,0,12.06,4.86,12.06,11.11,0,4.14-2.12,7.88-5.76,9.72l6.48,12.01h-7.11l-5.26-10.35h-7.38v10.35h-6.34v-32.85Zm6.34,5.85v10.84h6.48c4.19,0,6.12-2.61,6.12-5.54,0-3.24-2.07-5.31-6.12-5.31h-6.48Z"/><path class="e" d="M451.4,159.27h22.09v5.98h-15.75v7.38h15.75v5.98h-15.75v7.47h15.75v6.03h-22.09v-32.85Z"/><path class="e" d="M478.99,159.27h6.79l14.4,22.36v-22.36h6.12v32.85h-6.3l-14.85-23.08v23.08h-6.17v-32.85Z"/><path class="e" d="M520.34,165.12h-9.13v-5.85h24.43v5.85h-9.04v27h-6.25v-27Z"/><path class="e" d="M540.77,159.27h6.44v32.85h-6.44v-32.85Z"/><path class="e" d="M553.32,159.27h10.62c10.44,0,17.14,7.11,17.14,16.42s-7.2,16.42-17.01,16.42h-10.75v-32.85Zm6.39,5.89v21.01h3.96c6.66,0,10.98-4.59,10.98-10.48s-3.96-10.53-11.16-10.53h-3.78Z"/><path class="e" d="M586.04,159.27h22.09v5.98h-15.75v7.38h15.75v5.98h-15.75v7.47h15.75v6.03h-22.09v-32.85Z"/><path class="e" d="M611.37,185.82l5.53-4.41c2.16,3.42,5.08,5.17,9,5.17,3.55,0,5.4-1.71,5.4-4.09,0-3.06-3.15-3.69-7.69-4.72-4.91-1.04-10.39-2.61-10.39-9.27,0-5.4,4.81-9.72,11.65-9.72,5.8,0,9.45,2.02,12.78,5.71l-5.17,4.05c-1.71-2.52-3.92-4.09-7.69-4.09-3.55,0-5.08,1.75-5.08,3.91,0,2.66,3.29,3.15,7.38,4.1,5.04,1.08,10.84,2.7,10.84,9.81,0,5.62-4.72,10.3-12.06,10.3s-11.38-2.79-14.49-6.75Z"/></g></g><g><path class="f" d="M178.21,4.34c-10.71-1.92-21.79-2.69-33.11-2.19C62.52,5.78-1.48,75.66,2.15,158.24c3.63,82.58,73.51,146.58,156.09,142.95,82.58-3.63,146.58-73.51,142.95-156.09-1.95-44.25-22.92-83.17-54.67-109.2"/><g><path class="d" d="M246.65,103.41c-24.66,0-44.65-19.99-44.65-44.65,0-12.01,4.75-22.9,12.46-30.93-18.88-9.64-40.26-15.08-62.91-15.08C75.06,12.75,13.05,74.76,13.05,151.25c0,12.7,1.72,25,4.92,36.69L67.66,56.51h33.25l46.73,123.6V56.51h33.96V198.34h80.6v32.77H132.24l-11.48-31.81H47.81l-10.78,29.86c24.93,36.57,66.92,60.59,114.52,60.59,76.49,0,138.5-62.01,138.5-138.5,0-21.28-4.8-41.43-13.38-59.44-7.93,7.21-18.46,11.6-30.02,11.6Z"/><polygon class="d" points="59.05 168.68 109.52 168.68 84.41 99.32 59.05 168.68"/></g><g><g><path class="f" d="M237.94,78.6c25.31-22.82,41.33-5.19,41.33-5.19-16.5,20.45-36.43,8-41.33,5.19,0,0-2.85,.5-5.36-1.25"/><path class="g" d="M279.26,73.41s-15.34,2.79-24.13,2.88"/></g><g><path class="f" d="M221.66,53.38c27.41-20.25,41.64-1.15,41.64-1.15-18.41,18.75-37.04,4.41-41.64,1.15,0,0-2.88,.22-5.21-1.77"/><path class="g" d="M263.3,52.23s-15.54,1.29-24.29,.52"/></g><g><path class="f" d="M292.58,32.46c-26.65,21.24-11.88,39.92-11.88,39.92,22.87-12.93,13.84-34.63,11.88-39.92,0,0,.96-2.73-.36-5.49"/><path class="g" d="M280.7,72.39s5.27-14.68,6.79-23.33"/></g><g><path class="f" d="M269.54,9.83c-22.94,25.2-5.38,41.3-5.38,41.3,20.53-16.4,8.16-36.39,5.38-41.3,0,0,.52-2.84-1.23-5.36"/><path class="g" d="M264.16,51.14s2.87-15.33,2.99-24.11"/></g><g><path class="f" d="M247.13,36.39s6.17-21.68-30.33-28.84c1.79,7.74,9.2,33.47,30.33,28.84Z"/><line class="f" x1="211.97" y1="4.49" x2="216.8" y2="7.56"/><line class="g" x1="230.07" y1="20.07" x2="247.13" y2="36.39"/></g></g></g></g></g></g></svg>