<?xml version="1.0" encoding="UTF-8"?><svg xmlns="http://www.w3.org/2000/svg" viewBox="0 0 439 439"><g id="a"/><g id="b"><g id="c"><path d="M319.17,280.53c-2.16-.75-3.39-1.06-4.52-1.57-9.53-4.31-18.98-8.81-28.63-12.85-1.94-.81-4.82-.5-6.85,.33-2.71,1.11-5.33,2.91-7.4,5-4.36,4.4-8.59,4.55-13.75,1.35-5.35-3.31-11.11-5.96-16.65-8.98-4.97-2.7-7.79-1.89-9.62,3.45-3.18,9.26-6.05,18.63-9.08,27.94-.56,1.73-1.21,3.45-1.9,5.14-1.02,2.5-2.88,3.28-5.18,1.86-3.25-2-6.73-3.87-9.35-6.54-1.42-1.44-2.2-4.66-1.69-6.68,3.91-15.43,8.27-30.74,12.35-46.13,1.01-3.8,3.26-4.53,6.3-2.94,4.52,2.38,5.93-.05,6.94-3.82,2.64-9.94,5.49-19.82,7.97-29.8,1.11-4.46,3.5-6.13,7.89-5.2,10.87,2.29,21.76,4.54,32.62,6.89,3.02,.65,4.63,2.21,3.46,5.74-.92,2.81-1.39,5.8-1.72,8.75-.15,1.31,.12,3.25,.97,3.93,.78,.63,2.89,.42,3.93-.22,11.93-7.24,23.74-14.67,35.63-21.98,3.4-2.09,3.76-4.51,1.85-7.94-7.46-13.41-6.38-11.92,3.64-22.13,5.71-5.82,11.32-11.75,17.1-17.5,3.17-3.15,4.98-2.82,5.81,1.13,3.25,15.4,6.23,30.86,9.5,46.26,.79,3.71-.71,5.89-3.32,8.09-9.9,8.34-19.82,16.66-29.39,25.37-1.94,1.77-3.07,5.1-3.41,7.85-1.39,11.45-2.33,22.96-3.5,35.18Z"/></g></g></svg>