<?xml version="1.0" encoding="UTF-8"?><svg xmlns="http://www.w3.org/2000/svg" viewBox="0 0 439 439"><g id="a"/><g id="b"><g id="c"><path d="M268.82,342.81c.74,10.03,1.47,19.78,2.18,29.53,.54,7.27,1.15,14.54,1.56,21.82,.19,3.41-2.75,5.26-6.19,3.74-11.84-5.22-23.6-10.65-35.41-15.95-25.45-11.42-50.93-22.79-76.37-34.23-8.33-3.75-16.56-7.72-24.88-11.48-3.72-1.68-4.03-4.29-2.86-7.8,4.4-13.22,8.68-26.49,12.99-39.74,5.76-17.69,11.56-35.37,17.23-53.09,2.43-7.59,2.93-8,10.86-6.5,12.88,2.43,25.77,4.82,38.65,7.24,5.25,.99,6.17,2.68,4.7,8.13-4.15,15.36-8.12,30.77-12.47,46.08-1.24,4.36,.07,6.97,3.63,9.16,4.68,2.88,9.26,5.91,13.9,8.87,4.66,2.97,6.23,2.52,7.96-2.65,3.41-10.24,6.76-20.51,9.98-30.82,1.85-5.91,4-7.09,9.47-4.36,5.05,2.53,10.14,5.04,14.93,8.01,4.25,2.63,7.97,2.66,11.9-.39,2.36-1.83,5.08-3.22,7.37-5.13,3.28-2.75,6.61-2.62,10.21-.96,6.94,3.2,13.88,6.38,20.84,9.53,1.35,.61,2.85,1.62,4.17,1.47,5.45-.64,5.52,2.82,5.44,6.57-.07,3.49-1.85,4.87-5.19,4.05-2.58-.63-5.12-1.44-7.65-2.23-3.4-1.05-5.52,.26-6.49,3.53-2.81,9.56-5.78,19.08-8.25,28.72-1.04,4.04-3.11,6.45-6.92,7.68-3.15,1.02-6.24,2.29-9.45,3.12-4.45,1.15-6.53,3.74-5.84,8.07Z"/></g></g></svg>