<?xml version="1.0" encoding="UTF-8"?><svg xmlns="http://www.w3.org/2000/svg" viewBox="0 0 439 439"><g id="a"/><g id="b"><g id="c"><path d="M332.78,428.27c-2.19-.89-3.74-1.46-5.23-2.15-15.97-7.36-31.87-14.85-47.92-22.04-3.95-1.77-3.39-3.83-1-5.88,3.78-3.24,7.74-6.39,12.05-8.82,1.65-.94,5.02-.61,6.65,.52,4.62,3.2,8.92,6.92,13,10.8,3.11,2.96,5.79,3.04,9.25,.69,14.45-9.78,29.08-19.28,43.45-29.18,3.67-2.53,6.53-2.54,9.78,.17,2.55,2.12,5.15,4.21,7.82,6.17,2.56,1.89,2.34,3.7,.22,5.72-14.05,13.4-28.06,26.84-42.19,40.17-1.73,1.63-4.03,2.65-5.88,3.83Z"/></g></g></svg>