<?xml version="1.0" encoding="UTF-8"?><svg xmlns="http://www.w3.org/2000/svg" viewBox="0 0 439 439"><g id="a"/><g id="b"><g id="c"><path d="M153.11,208.91c-5.47,.27-10.94,.59-16.42,.81-3.9,.16-6.67-1.23-8.96-4.83-11.69-18.37-23.77-36.48-35.5-54.81-3.01-4.7-6.56-6.82-12.3-6.41-5.22,.37-10.56-.31-15.8-.9-3.91-.45-4.66-3.61-3.99-6.76,3.91-18.5,8-36.96,12.03-55.44,.92-4.21,1.86-8.42,2.76-12.63,.61-2.88,2.31-4.28,5.28-4.14,9.55,.45,19.1,.87,28.66,1.33,5.79,.28,11.59,.57,17.38,.9,22.06,1.26,44.11,2.56,66.17,3.74,1.35,.07,3.02-.42,4-1.27,.47-.4-.15-2.33-.58-3.45-.71-1.85-1.66-3.62-2.53-5.41-4.37-9.03-4.51-9.19,2.82-15.51,11.07-9.54,22.36-18.82,33.53-28.25,2.43-2.05,4.35-1.75,6.33,.67,9.81,11.95,19.68,23.85,29.52,35.76,2.28,2.76,2.24,5.36-.42,7.9-5.65,5.38-11.14,10.95-16.95,16.15-2.98,2.67-2.88,4.8-.31,7.52,11.61,12.33,23.2,24.69,34.71,37.12,2.2,2.37,4.3,2.62,7.04,1.11,6.7-3.68,13.53-7.14,20.21-10.85,3.4-1.89,5.74-1.07,8.24,1.72,7.75,8.65,15.58,17.23,23.63,25.59,5.55,5.77,5.72,7.85,.14,13.56-9.07,9.29-18.01,18.71-27.15,27.93-2.65,2.67-2.99,4.91-1.1,8.29,6.28,11.24,6.16,11.32-4.97,18.26-4.79,2.99-9.54,6.06-14.46,8.8-1.4,.78-4.05,1.31-4.92,.56-1.19-1.03-1.96-3.55-1.62-5.16,.81-3.88-.71-5.74-4.19-6.48-13.8-2.92-27.64-5.69-41.41-8.73-3.92-.87-5.54,.76-6.47,4.15-2.51,9.12-5.22,18.18-7.62,27.32-2.05,7.8-2.54,8.12-10.5,6.58-15.8-3.06-31.62-6.01-47.45-8.94-8.23-1.53-8.79-2.34-5.97-10.35,1.18-3.34,.43-5.21-3.33-5.27-2.5-.04-5,0-7.5,0v-.15Z"/></g></g></svg>