<?xml version="1.0" encoding="UTF-8"?><svg xmlns="http://www.w3.org/2000/svg" viewBox="0 0 439 439"><g id="a"/><g id="b"><g id="c"><path d="M306.79,296.63c2.89,.65,4.36,.96,5.82,1.31,5.5,1.32,9.58-1.3,10.08-6.98,1.19-13.58,1.85-27.22,3.34-40.76,.42-3.83,2.06-8.32,4.7-10.97,7.5-7.52,15.74-14.31,23.81-21.24,3.56-3.06,6.35-2.36,8.69,2.21,7.06,13.77,13.95,27.63,20.95,41.44,3.69,7.28,7.38,14.56,11.28,21.72,2.08,3.82,1.69,6.89-1.51,9.81-4.3,3.92-8.56,7.9-12.74,11.95-3.18,3.08-6.34,2.08-8.78-.5-4.29-4.54-8.63-3.55-13.61-1.49-18.62,7.68-37.3,15.2-56.03,22.6-1.75,.69-4.36,.83-5.84-.03-.86-.5-.69-3.61-.25-5.36,1.57-6.29,3.17-12.61,5.39-18.68,.8-2.19,3.4-3.72,4.69-5.03Z"/></g></g></svg>