<?xml version="1.0" encoding="UTF-8"?><svg xmlns="http://www.w3.org/2000/svg" viewBox="0 0 439 439"><g id="a"/><g id="b"><g id="c"><path d="M274.58,349.6c-.29-9.92,.14-10.36,9.97-13.21,5.7-1.65,11.42-3.33,16.94-5.51,19.61-7.74,39.17-15.62,58.66-23.65,3.93-1.62,7-1.86,10.39,1.29,4.86,4.52,10.15,8.58,15.29,12.78,2.6,2.13,2.51,4.06-.14,6.03-3.87,2.88-7.74,5.76-11.56,8.69-4.76,3.65-5.07,5.4-1.98,10.3,6.04,9.57,6.11,9.67-3.08,15.93-16.08,10.95-32.27,21.73-48.38,32.64-3.88,2.63-7.27,2.48-10.73-.85-3.35-3.23-6.94-6.2-10.49-9.2-4.84-4.1-6.36-4.08-11.18-.13-.51,.42-.97,.96-1.55,1.25-2.56,1.27-5.16,2.47-7.75,3.7-.91-2.75-2.42-5.45-2.64-8.25-.82-10.59-1.22-21.21-1.78-31.82Z"/></g></g></svg>