<?xml version="1.0" encoding="UTF-8"?><svg xmlns="http://www.w3.org/2000/svg" viewBox="0 0 396.81 396.81"><g id="a"/><g id="b"><g id="c"><path d="M388.81,8V388.81H8V8H388.81m8-8H0V396.81H396.81V0h0Z"/><g><path d="M103.39,183.83v24.94h-3.22v-24.94h3.22Z"/><path d="M130.03,197.81c-.19-3.48-.41-7.66-.37-10.77h-.11c-.85,2.92-1.89,6.03-3.15,9.47l-4.4,12.1h-2.44l-4.03-11.88c-1.18-3.52-2.18-6.73-2.89-9.69h-.07c-.07,3.11-.26,7.29-.48,11.03l-.67,10.69h-3.07l1.74-24.94h4.11l4.26,12.06c1.04,3.07,1.89,5.81,2.52,8.4h.11c.63-2.52,1.52-5.25,2.63-8.4l4.44-12.06h4.11l1.55,24.94h-3.15l-.63-10.95Z"/><path d="M142.42,200.92l-2.59,7.84h-3.33l8.47-24.94h3.89l8.51,24.94h-3.44l-2.66-7.84h-8.84Zm8.18-2.52l-2.44-7.18c-.56-1.63-.93-3.11-1.3-4.55h-.07c-.37,1.48-.78,3-1.26,4.51l-2.44,7.22h7.51Z"/><path d="M179.46,207.66c-1.44,.52-4.29,1.37-7.66,1.37-3.77,0-6.88-.96-9.32-3.29-2.15-2.07-3.48-5.4-3.48-9.29,.04-7.44,5.14-12.88,13.51-12.88,2.89,0,5.14,.63,6.22,1.15l-.78,2.63c-1.33-.59-3-1.07-5.51-1.07-6.07,0-10.03,3.77-10.03,10.03s3.81,10.06,9.62,10.06c2.11,0,3.55-.3,4.29-.67v-7.44h-5.07v-2.59h8.21v11.99Z"/><path d="M197.29,197.07h-9.69v8.99h10.8v2.7h-14.02v-24.94h13.47v2.7h-10.25v7.88h9.69v2.66Z"/><path d="M227.86,207.95c-1.18,.59-3.55,1.18-6.59,1.18-7.03,0-12.32-4.44-12.32-12.62s5.29-13.1,13.02-13.1c3.11,0,5.07,.67,5.92,1.11l-.78,2.63c-1.22-.59-2.96-1.04-5.03-1.04-5.85,0-9.73,3.74-9.73,10.29,0,6.11,3.52,10.03,9.58,10.03,1.96,0,3.96-.41,5.25-1.04l.67,2.55Z"/><path d="M252.42,196.04c0,8.58-5.22,13.14-11.58,13.14s-11.21-5.11-11.21-12.66c0-7.92,4.92-13.1,11.58-13.1s11.21,5.22,11.21,12.62Zm-19.35,.41c0,5.33,2.89,10.1,7.96,10.1s7.99-4.7,7.99-10.36c0-4.96-2.59-10.14-7.96-10.14s-7.99,4.92-7.99,10.4Z"/><path d="M277.92,196.04c0,8.58-5.22,13.14-11.58,13.14s-11.21-5.11-11.21-12.66c0-7.92,4.92-13.1,11.58-13.1s11.21,5.22,11.21,12.62Zm-19.35,.41c0,5.33,2.89,10.1,7.96,10.1s7.99-4.7,7.99-10.36c0-4.96-2.59-10.14-7.96-10.14s-7.99,4.92-7.99,10.4Z"/><path d="M282.1,183.83h3.22v22.24h10.66v2.7h-13.88v-24.94Z"/></g></g></g></svg>