<?xml version="1.0" encoding="UTF-8"?><svg id="Layer_2" xmlns="http://www.w3.org/2000/svg" width="748.76" height="381" viewBox="0 0 748.76 381"><defs><style>.cls-1{fill:none;stroke:#999;stroke-miterlimit:10;stroke-width:10px;}.cls-2{fill:gray;}.cls-3{fill:#999;}.cls-4{fill:#ccc;}</style></defs><g id="Layer_8"><g><g><circle class="cls-3" cx="190.5" cy="190.5" r="190.5"/><circle class="cls-4" cx="190.5" cy="190.5" r="176.5"/><polygon class="cls-1" points="79 248.78 141.45 132.54 196.99 211.76 238.65 169.77 302 243.8 79 248.78"/><circle class="cls-1" cx="240" cy="118" r="23"/></g><g><path class="cls-2" d="M405.56,127.34h27.99v7.58h-19.95v9.35h19.95v7.58h-19.95v9.46h19.95v7.64h-27.99v-41.62Z"/><path class="cls-2" d="M440.5,127.34h8.61l18.24,28.33v-28.33h7.75v41.62h-7.98l-18.81-29.24v29.24h-7.81v-41.62Z"/><path class="cls-2" d="M492.89,134.75h-11.57v-7.41h30.95v7.41h-11.46v34.2h-7.92v-34.2Z"/><path class="cls-2" d="M518.48,127.34h16.87c9.58,0,15.28,6.16,15.28,14.08,0,5.24-2.68,9.98-7.3,12.31l8.21,15.22h-9.01l-6.67-13.11h-9.35v13.11h-8.04v-41.62Zm8.04,7.41v13.74h8.21c5.3,0,7.75-3.31,7.75-7.01,0-4.1-2.62-6.73-7.75-6.73h-8.21Z"/><path class="cls-2" d="M556.78,127.34h27.99v7.58h-19.95v9.35h19.95v7.58h-19.95v9.46h19.95v7.64h-27.99v-41.62Z"/><path class="cls-2" d="M591.72,127.34h16.42c9.35,0,15.62,6.73,15.62,15.11s-6.27,15.16-15.68,15.16h-8.27v11.34h-8.09v-41.62Zm8.09,7.35v15.45h7.81c4.79,0,7.98-3.25,7.98-7.7s-3.19-7.75-7.98-7.75h-7.81Z"/><path class="cls-2" d="M630.14,127.34h16.87c9.58,0,15.28,6.16,15.28,14.08,0,5.24-2.68,9.98-7.3,12.31l8.21,15.22h-9.01l-6.67-13.11h-9.35v13.11h-8.04v-41.62Zm8.04,7.41v13.74h8.21c5.3,0,7.75-3.31,7.75-7.01,0-4.1-2.62-6.73-7.75-6.73h-8.21Z"/><path class="cls-2" d="M668.73,127.34h8.15v41.62h-8.15v-41.62Z"/><path class="cls-2" d="M681.27,160.97l7.01-5.59c2.74,4.33,6.44,6.56,11.4,6.56,4.5,0,6.84-2.17,6.84-5.19,0-3.88-3.99-4.67-9.75-5.99-6.21-1.31-13.17-3.31-13.17-11.74,0-6.84,6.1-12.31,14.77-12.31,7.35,0,11.97,2.57,16.19,7.24l-6.56,5.13c-2.17-3.19-4.96-5.19-9.75-5.19-4.5,0-6.44,2.22-6.44,4.96,0,3.36,4.16,3.99,9.35,5.19,6.38,1.37,13.74,3.42,13.74,12.43,0,7.13-5.99,13.05-15.28,13.05s-14.42-3.53-18.36-8.55Z"/><path class="cls-2" d="M720.77,127.34h27.99v7.58h-19.95v9.35h19.95v7.58h-19.95v9.46h19.95v7.64h-27.99v-41.62Z"/><path class="cls-2" d="M405.56,195.73h13.45c13.22,0,21.72,9.01,21.72,20.81s-9.12,20.81-21.55,20.81h-13.62v-41.62Zm8.09,7.47v26.62h5.02c8.44,0,13.91-5.81,13.91-13.28s-5.02-13.34-14.14-13.34h-4.79Z"/><path class="cls-2" d="M447.29,195.73h8.15v41.62h-8.15v-41.62Z"/><path class="cls-2" d="M460.22,195.73h8.49l11.17,30.9,11.29-30.9h8.44l-15.73,41.62h-7.92l-15.73-41.62Z"/><path class="cls-2" d="M504.11,195.73h27.99v7.58h-19.95v9.35h19.95v7.58h-19.95v9.46h19.95v7.64h-27.99v-41.62Z"/><path class="cls-2" d="M539.05,195.73h16.87c9.58,0,15.28,6.16,15.28,14.08,0,5.24-2.68,9.98-7.3,12.31l8.21,15.22h-9.01l-6.67-13.11h-9.35v13.11h-8.04v-41.62Zm8.04,7.41v13.74h8.21c5.3,0,7.75-3.31,7.75-7.01,0-4.1-2.62-6.73-7.75-6.73h-8.21Z"/><path class="cls-2" d="M574.28,229.37l7.01-5.59c2.74,4.33,6.44,6.56,11.4,6.56,4.5,0,6.84-2.17,6.84-5.19,0-3.88-3.99-4.67-9.75-5.99-6.21-1.31-13.17-3.31-13.17-11.74,0-6.84,6.1-12.31,14.77-12.31,7.35,0,11.97,2.57,16.19,7.24l-6.56,5.13c-2.17-3.19-4.96-5.19-9.75-5.19-4.5,0-6.44,2.22-6.44,4.96,0,3.36,4.16,3.99,9.35,5.19,6.38,1.37,13.74,3.42,13.74,12.43,0,7.13-5.99,13.05-15.28,13.05s-14.42-3.54-18.36-8.55Z"/><path class="cls-2" d="M613.78,195.73h27.99v7.58h-19.95v9.35h19.95v7.58h-19.95v9.46h19.95v7.64h-27.99v-41.62Z"/></g></g></g></svg>